<?xml version="1.0" encoding="UTF-8"?>
<svg version="1.1" xmlns="http://www.w3.org/2000/svg" width="784" height="1024">
<path d="M0 0 C0.66 0 1.32 0 2 0 C2.42708252 1.2468457 2.85416504 2.49369141 3.29418945 3.77832031 C22.87494777 60.86380443 43.93826415 111.15291024 83.59521484 157.35693359 C85.01599182 159.01870437 86.42502753 160.68983978 87.83203125 162.36328125 C94.44737497 170.20129221 101.34462983 177.72737564 108.39453125 185.17578125 C111.55583773 188.51692502 114.66109641 191.90455736 117.75 195.3125 C122.12455166 200.11018538 126.65098605 204.70249559 131.296875 209.234375 C133.31921743 211.30347679 135.19420583 213.3716335 137.06738281 215.56738281 C141.36699947 220.49817183 145.97850174 225.08580508 150.625 229.6875 C151.53072754 230.58944092 152.43645508 231.49138184 153.36962891 232.4206543 C156.24399569 235.28288564 159.1214694 238.14195802 162 241 C165.79475338 244.76774333 169.58581381 248.53915545 173.375 252.3125 C174.23561035 253.16481201 175.0962207 254.01712402 175.98291016 254.89526367 C180.23518811 259.13036494 184.30066361 263.43697252 188.21191406 267.98706055 C191.69631587 271.90962922 195.46003072 275.5603973 199.1875 279.25 C200.04883545 280.10754883 200.9101709 280.96509766 201.79760742 281.84863281 C204.5293112 284.56820889 207.26423275 287.284512 210 290 C213.60711851 293.58038026 217.21081802 297.16415181 220.8125 300.75 C221.62936279 301.55856445 222.44622559 302.36712891 223.2878418 303.20019531 C227.52873815 307.42307895 231.60796616 311.71606057 235.49267578 316.27001953 C237.85863944 318.98547442 240.42044056 321.48941273 243 324 C246.93171002 327.82658409 250.60307086 331.79279075 254.19238281 335.94287109 C257.16031605 339.32047853 260.27598288 342.55566071 263.375 345.8125 C268.39715671 351.13022228 273.21613778 356.51959916 277.7734375 362.24609375 C279.88870858 364.86235008 282.06998971 367.3995829 284.28295898 369.93261719 C305.03173004 393.73823034 323.44039525 421.03695818 330.25 452.3125 C330.47671387 453.33984253 330.47671387 453.33984253 330.70800781 454.38793945 C333.75901235 469.64124034 334.38248549 485.17804074 334.3125 500.6875 C334.31034485 501.55441467 334.3081897 502.42132935 334.30596924 503.31451416 C334.14786017 543.12418304 324.48948827 575.53929273 296.41650391 604.53222656 C294.99524487 606.00492724 293.59721558 607.49742498 292.19921875 608.9921875 C275.50969206 626.56341427 253.93683761 640.20753296 231 648 C230.12214844 648.31324219 229.24429688 648.62648438 228.33984375 648.94921875 C194.65719724 659.62146378 146.30584343 654.77111116 115.1953125 639.10546875 C100.00226054 631.15414177 86.19881554 620.6104861 73.86328125 608.74609375 C71.17693389 606.1696924 68.42288776 603.70391955 65.625 601.25 C62.14357725 598.12006704 58.9681481 594.91043731 55.95703125 591.328125 C54.43702666 589.51989598 52.89484257 587.74784411 51.32421875 585.984375 C35.85599884 568.50167733 23.68226409 548.52757791 11 529 C10.02110454 602.91413709 19.6237823 686.94652751 73.48828125 742.47265625 C96.64953051 765.87329827 125.67680417 783.53529896 156 796 C156.75925781 796.31275879 157.51851562 796.62551758 158.30078125 796.94775391 C163.80045788 799.17398311 169.36128646 801.15570227 175 803 C175.83885742 803.27521484 176.67771484 803.55042969 177.54199219 803.83398438 C195.91053394 809.66893766 214.89695579 812.64177009 233.86523438 815.80419922 C264.76482475 820.98427354 264.76482475 820.98427354 272 826 C273.28642069 828.57284138 273.24002723 830.56528953 273.3125 833.4375 C273.34988281 834.40558594 273.38726563 835.37367188 273.42578125 836.37109375 C273 839 273 839 271.26171875 840.77734375 C248.34223665 853.16732285 205.97005047 846.14722308 180.31673598 846.13072467 C175.02829983 846.12843237 169.73986678 846.13196896 164.45143127 846.13470459 C154.12885753 846.13912081 143.8062911 846.13820442 133.48371708 846.13529195 C125.08451664 846.13302149 116.68531822 846.13273247 108.28611755 846.13381577 C107.08473844 846.133969 105.88335932 846.13412223 104.64557478 846.13428011 C102.20400194 846.13459988 99.76242911 846.13492409 97.32085627 846.1352527 C74.49629502 846.13809534 51.6717378 846.1348396 28.84717721 846.12945233 C9.31820076 846.1249854 -10.21076975 846.12576168 -29.73974609 846.13037109 C-52.48993448 846.13573839 -75.24011935 846.13782076 -97.99030828 846.13475883 C-100.42224471 846.13444032 -102.85418113 846.13412595 -105.28611755 846.13381577 C-107.08034599 846.13358435 -107.08034599 846.13358435 -108.91082147 846.13334826 C-117.2871926 846.13248957 -125.66356147 846.13393196 -134.03993225 846.13629532 C-144.26613031 846.13911753 -154.4923207 846.13830443 -164.7185179 846.13301457 C-169.92293953 846.13040997 -175.12734845 846.12931661 -180.33176994 846.13266373 C-232.16572647 846.16312735 -232.16572647 846.16312735 -254.75 844.125 C-255.49070755 844.05956965 -256.23141511 843.99413931 -256.99456835 843.92672622 C-261.88093749 843.39203296 -265.66371217 842.21261866 -270 840 C-271.90076749 836.19846502 -271.41112713 832.26274763 -270.125 828.3125 C-264.50808072 822.1999702 -254.88703564 821.18093651 -247.03515625 820.0703125 C-246.01223984 819.91480927 -244.98932343 819.75930603 -243.93540955 819.59909058 C-241.76403456 819.26911388 -239.59193697 818.94386172 -237.41918945 818.62304688 C-231.76521839 817.78414216 -226.11884662 816.89737869 -220.47265625 816.0078125 C-219.37233063 815.83461487 -218.272005 815.66141724 -217.13833618 815.48297119 C-189.58700132 811.10195337 -162.09649587 804.44109436 -137 792 C-135.84709473 791.43974121 -135.84709473 791.43974121 -134.67089844 790.86816406 C-117.44712819 782.44219743 -102.27553679 771.75898804 -88 759 C-87.21302734 758.29762207 -87.21302734 758.29762207 -86.41015625 757.58105469 C-30.30443322 707.271094 -9.2085808 636.11426139 -4.19775391 562.79199219 C-3.68015929 552.86695568 -3.74833226 542.93248694 -4 533 C-9.21277006 535.46769665 -11.73436244 539.27748014 -14.9375 543.875 C-15.49671143 544.66221436 -16.05592285 545.44942871 -16.63208008 546.26049805 C-20.93740893 552.36494391 -25.0698938 558.58059964 -29.1875 564.8125 C-37.41328124 577.24841527 -46.20912533 588.69759943 -56.53710938 599.46972656 C-57.90709091 600.90281139 -59.25893834 602.35317025 -60.609375 603.8046875 C-88.04948267 632.4920728 -128.57930491 651.20330892 -168.46801758 652.16113281 C-170.02679232 652.18095237 -171.58565321 652.19471366 -173.14453125 652.203125 C-173.99440109 652.20882507 -174.84427094 652.21452515 -175.71989441 652.22039795 C-177.51238792 652.22978568 -179.30489821 652.23635692 -181.09741211 652.24023438 C-183.76774483 652.24983902 -186.43727233 652.28088013 -189.10742188 652.3125 C-227.46377091 652.54870323 -259.15798332 640.44991585 -287 614 C-288.3486155 612.84763825 -289.70241463 611.70130164 -291.0625 610.5625 C-318.64904697 586.41019663 -332.11685445 551.27220343 -334.8190918 515.41503906 C-337.70199468 460.9939249 -323.51597454 412.82682762 -287.15625 370.87255859 C-283.69177881 367.02365588 -280.11710147 363.28741837 -276.50878906 359.57373047 C-274.46177689 357.43861065 -272.51239448 355.22375606 -270.5625 353 C-262.67250552 344.17916347 -254.27454316 335.62593108 -245.21875 328 C-241.84987939 324.96327156 -238.69090341 321.72188306 -235.5 318.5 C-231.19812143 314.15635562 -226.89692101 309.93951243 -222.21875 306 C-218.19090944 302.36927048 -214.42461585 298.46278673 -210.62890625 294.59179688 C-207.63696143 291.55873654 -204.62172955 288.63489154 -201.375 285.875 C-195.07792828 280.44522622 -189.34205562 274.40860467 -183.5 268.5 C-170.33432665 255.18435152 -170.33432665 255.18435152 -166.06640625 251.55859375 C-160.18861765 246.55929164 -154.83429829 240.98248749 -149.39086914 235.52124023 C-147.4420313 233.56704376 -145.48790728 231.61824853 -143.53320312 229.66992188 C-138.02416073 224.16351728 -132.56593531 218.67792891 -127.51977539 212.73803711 C-124.68287412 209.4937158 -121.57537253 206.51595075 -118.5 203.5 C-114.14847688 199.19012077 -109.87605809 194.89224332 -105.92578125 190.20703125 C-103.6770628 187.62989956 -101.33709144 185.15075601 -98.98974609 182.66357422 C-93.49967437 176.84573702 -88.18907585 170.97868082 -83.1953125 164.72265625 C-81.19987408 162.24788654 -79.14953343 159.83060197 -77.07324219 157.42358398 C-37.07835016 110.9249419 -17.70406604 57.83919988 0 0 Z " fill="#000000" transform="translate(393,61)"/>
</svg>
